G04 MADE WITH FRITZING*
G04 WWW.FRITZING.ORG*
G04 DOUBLE SIDED*
G04 HOLES PLATED*
G04 CONTOUR ON CENTER OF CONTOUR VECTOR*
%FSLAX26Y26*%
%MOIN*%
%ADD10C,0.078000*%
%ADD11C,0.058000*%
%ADD12C,0.080000*%
%ADD13R,0.077986X0.077944*%
%ADD14R,0.080000X0.080000*%
%ADD15C,0.048000*%
%ADD16C,0.024000*%
G04 COPPER0*
%FSLAX26Y26*%
%MOIN*%
D10*
X317278Y2187607D03*
X316861Y2088029D03*
X316861Y1988029D03*
X316861Y1888029D03*
X316861Y1788029D03*
X316861Y1688029D03*
X316861Y1588029D03*
D11*
X316861Y1488030D03*
D10*
X316861Y1388030D03*
X316861Y1288030D03*
D11*
X389037Y1473350D03*
X715953Y1501970D03*
D10*
X684257Y1425780D03*
X816534Y1389870D03*
X816278Y1289610D03*
X916841Y1288030D03*
X916841Y1388030D03*
X916841Y1488030D03*
X916841Y1588034D03*
X916841Y1688034D03*
X916841Y1788034D03*
X916841Y1888034D03*
X916841Y1988034D03*
X916841Y2088034D03*
X916841Y2187607D03*
X414775Y1001950D03*
X514817Y1001950D03*
X614844Y1001950D03*
X714844Y1001960D03*
D12*
X478158Y2401964D03*
X615953Y2401964D03*
X478158Y2401964D03*
X615953Y2401964D03*
D13*
X414782Y1001968D03*
D14*
X478158Y2401964D03*
X478158Y2401964D03*
D15*
X655389Y2082850D02*
X897852Y2087657D01*
D02*
X488822Y1869867D02*
X655387Y2082851D01*
D02*
X477900Y1159920D02*
X488822Y1869866D01*
D02*
X421828Y1019590D02*
X477900Y1159920D01*
D02*
X720922Y1970897D02*
X897920Y1986377D01*
D02*
X581656Y1154460D02*
X584386Y1804332D01*
D02*
X584389Y1804332D02*
X720918Y1970897D01*
D02*
X522438Y1019350D02*
X581653Y1154460D01*
D16*
D02*
X144767Y1886250D02*
X297863Y1887832D01*
D02*
X229411Y834980D02*
X229411Y1075270D01*
D02*
X147500Y1154460D02*
X144769Y1886249D01*
D02*
X229411Y1075270D02*
X147494Y1154460D01*
D02*
X718189Y832250D02*
X229417Y834980D01*
D02*
X715219Y982970D02*
X718187Y832250D01*
D02*
X215767Y1200880D02*
X210306Y1790680D01*
D02*
X308600Y1132610D02*
X215761Y1200880D01*
D02*
X316789Y903240D02*
X308597Y1132610D01*
D02*
X617156Y903240D02*
X316793Y903240D01*
D02*
X210300Y1790680D02*
X297868Y1788501D01*
D02*
X615289Y982960D02*
X617156Y903240D01*
D15*
D02*
X1018540Y2391404D02*
X635943Y2401440D01*
D02*
X1021280Y2137462D02*
X1018550Y2391405D01*
D02*
X914789Y2101964D02*
X1021280Y2137462D01*
D02*
X914790Y2101964D02*
X914790Y2101964D01*
D02*
X483356Y2192073D02*
X478652Y2381970D01*
D02*
X897845Y2187802D02*
X483360Y2192073D01*
G04 End of Copper0*
M02*