; NON-PLATED HOLES START AT T1
; THROUGH (PLATED) HOLES START AT T100
M48
INCH
T100C0.040000
T101C0.038000
%
T100
X006159Y024019
X004781Y024019
T101
X003168Y018880
X009168Y012880
X003168Y020880
X003168Y014880
X003168Y016880
X006148Y010019
X008165Y013898
X003168Y015880
X009168Y016880
X009168Y014880
X009168Y015880
X006842Y014257
X009168Y018880
X009168Y020880
X003168Y012880
X007159Y015019
X003168Y019880
X005148Y010019
X003890Y014733
X007148Y010019
X003172Y021876
X009168Y021876
X003168Y013880
X009168Y017880
X003168Y017880
X009168Y013880
X009168Y019880
X008162Y012896
X004147Y010019
T00
M30
