G04 MADE WITH FRITZING*
G04 WWW.FRITZING.ORG*
G04 DOUBLE SIDED*
G04 HOLES PLATED*
G04 CONTOUR ON CENTER OF CONTOUR VECTOR*
%FSLAX26Y26*%
%MOIN*%
%ADD10C,0.116000*%
%ADD11R,1.116480X2.563900X1.100480X2.547900*%
%ADD12C,0.008000*%
%ADD13C,0.010000*%
%ADD14R,0.001000X0.001000*%
G04 SILK1*
%FSLAX26Y26*%
%MOIN*%
D10*
X115119Y1004740D03*
X115119Y91200D03*
X1015120Y91200D03*
X1015120Y1004740D03*
D12*
X4000Y2559900D02*
X1112480Y2559900D01*
X1112480Y4000D01*
X4000Y4000D01*
X4000Y2559900D01*
D02*
D13*
X1096900Y1080700D02*
X1096900Y17370D01*
D02*
X33900Y1080700D02*
X1096900Y1080700D01*
D02*
X33900Y1080700D02*
X33900Y17370D01*
D02*
X33900Y17370D02*
X1096900Y17370D01*
X258278Y2242227D02*
X974813Y2242227D01*
X974813Y1210730D01*
X258278Y1210730D01*
X258278Y2242227D01*
D02*
D02*
D14*
X77500Y2430400D02*
X81500Y2430400D01*
X76500Y2429400D02*
X82500Y2429400D01*
X75500Y2428400D02*
X83500Y2428400D01*
X75500Y2427400D02*
X83500Y2427400D01*
X74500Y2426400D02*
X83500Y2426400D01*
X74500Y2425400D02*
X84500Y2425400D01*
X74500Y2424400D02*
X84500Y2424400D01*
X74500Y2423400D02*
X84500Y2423400D01*
X74500Y2422400D02*
X84500Y2422400D01*
X74500Y2421400D02*
X84500Y2421400D01*
X74500Y2420400D02*
X84500Y2420400D01*
X74500Y2419400D02*
X84500Y2419400D01*
X74500Y2418400D02*
X84500Y2418400D01*
X74500Y2417400D02*
X84500Y2417400D01*
X74500Y2416400D02*
X84500Y2416400D01*
X74500Y2415400D02*
X84500Y2415400D01*
X74500Y2414400D02*
X84500Y2414400D01*
X74500Y2413400D02*
X84500Y2413400D01*
X74500Y2412400D02*
X84500Y2412400D01*
X59500Y2411400D02*
X99500Y2411400D01*
X57500Y2410400D02*
X101500Y2410400D01*
X56500Y2409400D02*
X102500Y2409400D01*
X55500Y2408400D02*
X103500Y2408400D01*
X55500Y2407400D02*
X103500Y2407400D01*
X203500Y2407400D02*
X244500Y2407400D01*
X55500Y2406400D02*
X103500Y2406400D01*
X201500Y2406400D02*
X246500Y2406400D01*
X55500Y2405400D02*
X103500Y2405400D01*
X200500Y2405400D02*
X247500Y2405400D01*
X55500Y2404400D02*
X103500Y2404400D01*
X199500Y2404400D02*
X248500Y2404400D01*
X56500Y2403400D02*
X102500Y2403400D01*
X199500Y2403400D02*
X248500Y2403400D01*
X57500Y2402400D02*
X101500Y2402400D01*
X199500Y2402400D02*
X248500Y2402400D01*
X60500Y2401400D02*
X98500Y2401400D01*
X199500Y2401400D02*
X248500Y2401400D01*
X74500Y2400400D02*
X84500Y2400400D01*
X200500Y2400400D02*
X248500Y2400400D01*
X74500Y2399400D02*
X84500Y2399400D01*
X200500Y2399400D02*
X247500Y2399400D01*
X74500Y2398400D02*
X84500Y2398400D01*
X201500Y2398400D02*
X246500Y2398400D01*
X74500Y2397400D02*
X84500Y2397400D01*
X74500Y2396400D02*
X84500Y2396400D01*
X74500Y2395400D02*
X84500Y2395400D01*
X74500Y2394400D02*
X84500Y2394400D01*
X74500Y2393400D02*
X84500Y2393400D01*
X74500Y2392400D02*
X84500Y2392400D01*
X74500Y2391400D02*
X84500Y2391400D01*
X74500Y2390400D02*
X84500Y2390400D01*
X74500Y2389400D02*
X84500Y2389400D01*
X74500Y2388400D02*
X84500Y2388400D01*
X74500Y2387400D02*
X84500Y2387400D01*
X74500Y2386400D02*
X83500Y2386400D01*
X75500Y2385400D02*
X83500Y2385400D01*
X75500Y2384400D02*
X83500Y2384400D01*
X76500Y2383400D02*
X82500Y2383400D01*
X77500Y2382400D02*
X81500Y2382400D01*
X1002500Y2326400D02*
X1006500Y2326400D01*
X1039500Y2326400D02*
X1057500Y2326400D01*
X1001500Y2325400D02*
X1006500Y2325400D01*
X1038500Y2325400D02*
X1057500Y2325400D01*
X1001500Y2324400D02*
X1007500Y2324400D01*
X1037500Y2324400D02*
X1057500Y2324400D01*
X1001500Y2323400D02*
X1007500Y2323400D01*
X1037500Y2323400D02*
X1057500Y2323400D01*
X1000500Y2322400D02*
X1008500Y2322400D01*
X1038500Y2322400D02*
X1057500Y2322400D01*
X1000500Y2321400D02*
X1008500Y2321400D01*
X1038500Y2321400D02*
X1057500Y2321400D01*
X1000500Y2320400D02*
X1008500Y2320400D01*
X1040500Y2320400D02*
X1057500Y2320400D01*
X1000500Y2319400D02*
X1008500Y2319400D01*
X1051500Y2319400D02*
X1057500Y2319400D01*
X999500Y2318400D02*
X1009500Y2318400D01*
X1051500Y2318400D02*
X1057500Y2318400D01*
X999500Y2317400D02*
X1009500Y2317400D01*
X1051500Y2317400D02*
X1057500Y2317400D01*
X999500Y2316400D02*
X1009500Y2316400D01*
X1051500Y2316400D02*
X1057500Y2316400D01*
X998500Y2315400D02*
X1010500Y2315400D01*
X1051500Y2315400D02*
X1057500Y2315400D01*
X998500Y2314400D02*
X1010500Y2314400D01*
X1051500Y2314400D02*
X1057500Y2314400D01*
X998500Y2313400D02*
X1010500Y2313400D01*
X1051500Y2313400D02*
X1057500Y2313400D01*
X998500Y2312400D02*
X1010500Y2312400D01*
X1051500Y2312400D02*
X1057500Y2312400D01*
X997500Y2311400D02*
X1011500Y2311400D01*
X1051500Y2311400D02*
X1057500Y2311400D01*
X997500Y2310400D02*
X1003500Y2310400D01*
X1005500Y2310400D02*
X1011500Y2310400D01*
X1051500Y2310400D02*
X1057500Y2310400D01*
X997500Y2309400D02*
X1003500Y2309400D01*
X1005500Y2309400D02*
X1011500Y2309400D01*
X1051500Y2309400D02*
X1057500Y2309400D01*
X996500Y2308400D02*
X1003500Y2308400D01*
X1005500Y2308400D02*
X1012500Y2308400D01*
X1051500Y2308400D02*
X1057500Y2308400D01*
X996500Y2307400D02*
X1002500Y2307400D01*
X1006500Y2307400D02*
X1012500Y2307400D01*
X1051500Y2307400D02*
X1057500Y2307400D01*
X996500Y2306400D02*
X1002500Y2306400D01*
X1006500Y2306400D02*
X1012500Y2306400D01*
X1051500Y2306400D02*
X1057500Y2306400D01*
X995500Y2305400D02*
X1002500Y2305400D01*
X1006500Y2305400D02*
X1013500Y2305400D01*
X1051500Y2305400D02*
X1057500Y2305400D01*
X995500Y2304400D02*
X1002500Y2304400D01*
X1007500Y2304400D02*
X1013500Y2304400D01*
X1051500Y2304400D02*
X1057500Y2304400D01*
X995500Y2303400D02*
X1001500Y2303400D01*
X1007500Y2303400D02*
X1013500Y2303400D01*
X1051500Y2303400D02*
X1057500Y2303400D01*
X995500Y2302400D02*
X1001500Y2302400D01*
X1007500Y2302400D02*
X1013500Y2302400D01*
X1051500Y2302400D02*
X1057500Y2302400D01*
X994500Y2301400D02*
X1001500Y2301400D01*
X1007500Y2301400D02*
X1014500Y2301400D01*
X1051500Y2301400D02*
X1057500Y2301400D01*
X994500Y2300400D02*
X1000500Y2300400D01*
X1008500Y2300400D02*
X1014500Y2300400D01*
X1051500Y2300400D02*
X1057500Y2300400D01*
X994500Y2299400D02*
X1000500Y2299400D01*
X1008500Y2299400D02*
X1014500Y2299400D01*
X1051500Y2299400D02*
X1057500Y2299400D01*
X993500Y2298400D02*
X1000500Y2298400D01*
X1008500Y2298400D02*
X1015500Y2298400D01*
X1051500Y2298400D02*
X1057500Y2298400D01*
X993500Y2297400D02*
X999500Y2297400D01*
X1009500Y2297400D02*
X1015500Y2297400D01*
X1051500Y2297400D02*
X1057500Y2297400D01*
X993500Y2296400D02*
X999500Y2296400D01*
X1009500Y2296400D02*
X1015500Y2296400D01*
X1051500Y2296400D02*
X1057500Y2296400D01*
X993500Y2295400D02*
X999500Y2295400D01*
X1009500Y2295400D02*
X1015500Y2295400D01*
X1051500Y2295400D02*
X1057500Y2295400D01*
X992500Y2294400D02*
X999500Y2294400D01*
X1009500Y2294400D02*
X1016500Y2294400D01*
X1051500Y2294400D02*
X1057500Y2294400D01*
X992500Y2293400D02*
X998500Y2293400D01*
X1010500Y2293400D02*
X1016500Y2293400D01*
X1051500Y2293400D02*
X1057500Y2293400D01*
X1066500Y2293400D02*
X1069500Y2293400D01*
X992500Y2292400D02*
X998500Y2292400D01*
X1010500Y2292400D02*
X1016500Y2292400D01*
X1051500Y2292400D02*
X1057500Y2292400D01*
X1066500Y2292400D02*
X1070500Y2292400D01*
X991500Y2291400D02*
X1017500Y2291400D01*
X1051500Y2291400D02*
X1057500Y2291400D01*
X1065500Y2291400D02*
X1071500Y2291400D01*
X991500Y2290400D02*
X1017500Y2290400D01*
X1051500Y2290400D02*
X1057500Y2290400D01*
X1065500Y2290400D02*
X1071500Y2290400D01*
X991500Y2289400D02*
X1017500Y2289400D01*
X1051500Y2289400D02*
X1057500Y2289400D01*
X1065500Y2289400D02*
X1071500Y2289400D01*
X990500Y2288400D02*
X1018500Y2288400D01*
X1051500Y2288400D02*
X1057500Y2288400D01*
X1065500Y2288400D02*
X1071500Y2288400D01*
X990500Y2287400D02*
X1018500Y2287400D01*
X1051500Y2287400D02*
X1057500Y2287400D01*
X1065500Y2287400D02*
X1071500Y2287400D01*
X990500Y2286400D02*
X1018500Y2286400D01*
X1051500Y2286400D02*
X1057500Y2286400D01*
X1065500Y2286400D02*
X1071500Y2286400D01*
X990500Y2285400D02*
X1018500Y2285400D01*
X1051500Y2285400D02*
X1057500Y2285400D01*
X1065500Y2285400D02*
X1071500Y2285400D01*
X989500Y2284400D02*
X996500Y2284400D01*
X1012500Y2284400D02*
X1019500Y2284400D01*
X1051500Y2284400D02*
X1057500Y2284400D01*
X1065500Y2284400D02*
X1071500Y2284400D01*
X989500Y2283400D02*
X995500Y2283400D01*
X1013500Y2283400D02*
X1019500Y2283400D01*
X1051500Y2283400D02*
X1057500Y2283400D01*
X1065500Y2283400D02*
X1071500Y2283400D01*
X989500Y2282400D02*
X995500Y2282400D01*
X1013500Y2282400D02*
X1019500Y2282400D01*
X1051500Y2282400D02*
X1057500Y2282400D01*
X1065500Y2282400D02*
X1071500Y2282400D01*
X988500Y2281400D02*
X995500Y2281400D01*
X1013500Y2281400D02*
X1020500Y2281400D01*
X1051500Y2281400D02*
X1057500Y2281400D01*
X1065500Y2281400D02*
X1071500Y2281400D01*
X988500Y2280400D02*
X994500Y2280400D01*
X1014500Y2280400D02*
X1020500Y2280400D01*
X1051500Y2280400D02*
X1057500Y2280400D01*
X1065500Y2280400D02*
X1071500Y2280400D01*
X988500Y2279400D02*
X994500Y2279400D01*
X1014500Y2279400D02*
X1020500Y2279400D01*
X1039500Y2279400D02*
X1071500Y2279400D01*
X988500Y2278400D02*
X994500Y2278400D01*
X1014500Y2278400D02*
X1020500Y2278400D01*
X1038500Y2278400D02*
X1071500Y2278400D01*
X987500Y2277400D02*
X994500Y2277400D01*
X1014500Y2277400D02*
X1021500Y2277400D01*
X1038500Y2277400D02*
X1071500Y2277400D01*
X987500Y2276400D02*
X993500Y2276400D01*
X1015500Y2276400D02*
X1021500Y2276400D01*
X1037500Y2276400D02*
X1071500Y2276400D01*
X987500Y2275400D02*
X993500Y2275400D01*
X1015500Y2275400D02*
X1021500Y2275400D01*
X1038500Y2275400D02*
X1071500Y2275400D01*
X988500Y2274400D02*
X992500Y2274400D01*
X1016500Y2274400D02*
X1020500Y2274400D01*
X1038500Y2274400D02*
X1070500Y2274400D01*
X989500Y2273400D02*
X991500Y2273400D01*
X1017500Y2273400D02*
X1019500Y2273400D01*
X1039500Y2273400D02*
X1069500Y2273400D01*
X382500Y944400D02*
X389500Y944400D01*
X588500Y944400D02*
X594500Y944400D01*
X616500Y944400D02*
X622500Y944400D01*
X686500Y944400D02*
X692500Y944400D01*
X742500Y944400D02*
X743500Y944400D01*
X380500Y943400D02*
X391500Y943400D01*
X403500Y943400D02*
X407500Y943400D01*
X423500Y943400D02*
X426500Y943400D01*
X433500Y943400D02*
X447500Y943400D01*
X475500Y943400D02*
X478500Y943400D01*
X496500Y943400D02*
X499500Y943400D01*
X504500Y943400D02*
X518500Y943400D01*
X532500Y943400D02*
X547500Y943400D01*
X586500Y943400D02*
X597500Y943400D01*
X613500Y943400D02*
X624500Y943400D01*
X636500Y943400D02*
X638500Y943400D01*
X651500Y943400D02*
X655500Y943400D01*
X683500Y943400D02*
X694500Y943400D01*
X705500Y943400D02*
X719500Y943400D01*
X741500Y943400D02*
X744500Y943400D01*
X378500Y942400D02*
X393500Y942400D01*
X403500Y942400D02*
X407500Y942400D01*
X423500Y942400D02*
X426500Y942400D01*
X433500Y942400D02*
X449500Y942400D01*
X476500Y942400D02*
X478500Y942400D01*
X496500Y942400D02*
X499500Y942400D01*
X504500Y942400D02*
X520500Y942400D01*
X532500Y942400D02*
X549500Y942400D01*
X584500Y942400D02*
X598500Y942400D01*
X611500Y942400D02*
X626500Y942400D01*
X636500Y942400D02*
X638500Y942400D01*
X650500Y942400D02*
X654500Y942400D01*
X682500Y942400D02*
X696500Y942400D01*
X705500Y942400D02*
X721500Y942400D01*
X740500Y942400D02*
X744500Y942400D01*
X377500Y941400D02*
X394500Y941400D01*
X403500Y941400D02*
X408500Y941400D01*
X423500Y941400D02*
X426500Y941400D01*
X433500Y941400D02*
X451500Y941400D01*
X476500Y941400D02*
X479500Y941400D01*
X495500Y941400D02*
X498500Y941400D01*
X504500Y941400D02*
X522500Y941400D01*
X532500Y941400D02*
X550500Y941400D01*
X583500Y941400D02*
X590500Y941400D01*
X592500Y941400D02*
X599500Y941400D01*
X610500Y941400D02*
X618500Y941400D01*
X620500Y941400D02*
X627500Y941400D01*
X636500Y941400D02*
X638500Y941400D01*
X650500Y941400D02*
X653500Y941400D01*
X681500Y941400D02*
X688500Y941400D01*
X690500Y941400D02*
X697500Y941400D01*
X705500Y941400D02*
X723500Y941400D01*
X740500Y941400D02*
X745500Y941400D01*
X376500Y940400D02*
X381500Y940400D01*
X390500Y940400D02*
X395500Y940400D01*
X403500Y940400D02*
X409500Y940400D01*
X423500Y940400D02*
X426500Y940400D01*
X433500Y940400D02*
X435500Y940400D01*
X446500Y940400D02*
X452500Y940400D01*
X476500Y940400D02*
X479500Y940400D01*
X495500Y940400D02*
X498500Y940400D01*
X504500Y940400D02*
X506500Y940400D01*
X517500Y940400D02*
X523500Y940400D01*
X532500Y940400D02*
X535500Y940400D01*
X546500Y940400D02*
X551500Y940400D01*
X582500Y940400D02*
X586500Y940400D01*
X596500Y940400D02*
X600500Y940400D01*
X609500Y940400D02*
X614500Y940400D01*
X624500Y940400D02*
X628500Y940400D01*
X636500Y940400D02*
X638500Y940400D01*
X649500Y940400D02*
X652500Y940400D01*
X680500Y940400D02*
X684500Y940400D01*
X693500Y940400D02*
X697500Y940400D01*
X705500Y940400D02*
X707500Y940400D01*
X718500Y940400D02*
X724500Y940400D01*
X739500Y940400D02*
X745500Y940400D01*
X375500Y939400D02*
X379500Y939400D01*
X392500Y939400D02*
X396500Y939400D01*
X403500Y939400D02*
X409500Y939400D01*
X423500Y939400D02*
X426500Y939400D01*
X433500Y939400D02*
X435500Y939400D01*
X448500Y939400D02*
X453500Y939400D01*
X477500Y939400D02*
X479500Y939400D01*
X495500Y939400D02*
X497500Y939400D01*
X504500Y939400D02*
X506500Y939400D01*
X519500Y939400D02*
X524500Y939400D01*
X532500Y939400D02*
X535500Y939400D01*
X548500Y939400D02*
X552500Y939400D01*
X582500Y939400D02*
X585500Y939400D01*
X597500Y939400D02*
X600500Y939400D01*
X609500Y939400D02*
X613500Y939400D01*
X625500Y939400D02*
X629500Y939400D01*
X636500Y939400D02*
X638500Y939400D01*
X648500Y939400D02*
X651500Y939400D01*
X680500Y939400D02*
X683500Y939400D01*
X695500Y939400D02*
X698500Y939400D01*
X705500Y939400D02*
X707500Y939400D01*
X720500Y939400D02*
X725500Y939400D01*
X739500Y939400D02*
X745500Y939400D01*
X375500Y938400D02*
X378500Y938400D01*
X393500Y938400D02*
X396500Y938400D01*
X403500Y938400D02*
X410500Y938400D01*
X423500Y938400D02*
X426500Y938400D01*
X433500Y938400D02*
X435500Y938400D01*
X450500Y938400D02*
X453500Y938400D01*
X477500Y938400D02*
X480500Y938400D01*
X494500Y938400D02*
X497500Y938400D01*
X504500Y938400D02*
X506500Y938400D01*
X521500Y938400D02*
X524500Y938400D01*
X532500Y938400D02*
X535500Y938400D01*
X549500Y938400D02*
X553500Y938400D01*
X582500Y938400D02*
X584500Y938400D01*
X598500Y938400D02*
X601500Y938400D01*
X608500Y938400D02*
X611500Y938400D01*
X626500Y938400D02*
X629500Y938400D01*
X636500Y938400D02*
X638500Y938400D01*
X647500Y938400D02*
X650500Y938400D01*
X679500Y938400D02*
X682500Y938400D01*
X695500Y938400D02*
X698500Y938400D01*
X705500Y938400D02*
X707500Y938400D01*
X722500Y938400D02*
X725500Y938400D01*
X739500Y938400D02*
X741500Y938400D01*
X743500Y938400D02*
X746500Y938400D01*
X374500Y937400D02*
X377500Y937400D01*
X394500Y937400D02*
X397500Y937400D01*
X403500Y937400D02*
X406500Y937400D01*
X408500Y937400D02*
X411500Y937400D01*
X423500Y937400D02*
X426500Y937400D01*
X433500Y937400D02*
X435500Y937400D01*
X451500Y937400D02*
X454500Y937400D01*
X477500Y937400D02*
X480500Y937400D01*
X494500Y937400D02*
X497500Y937400D01*
X504500Y937400D02*
X506500Y937400D01*
X522500Y937400D02*
X525500Y937400D01*
X532500Y937400D02*
X535500Y937400D01*
X550500Y937400D02*
X553500Y937400D01*
X581500Y937400D02*
X584500Y937400D01*
X598500Y937400D02*
X601500Y937400D01*
X607500Y937400D02*
X611500Y937400D01*
X627500Y937400D02*
X630500Y937400D01*
X636500Y937400D02*
X638500Y937400D01*
X646500Y937400D02*
X650500Y937400D01*
X679500Y937400D02*
X682500Y937400D01*
X696500Y937400D02*
X699500Y937400D01*
X705500Y937400D02*
X707500Y937400D01*
X722500Y937400D02*
X726500Y937400D01*
X738500Y937400D02*
X741500Y937400D01*
X744500Y937400D02*
X746500Y937400D01*
X374500Y936400D02*
X377500Y936400D01*
X394500Y936400D02*
X397500Y936400D01*
X403500Y936400D02*
X406500Y936400D01*
X408500Y936400D02*
X411500Y936400D01*
X423500Y936400D02*
X426500Y936400D01*
X433500Y936400D02*
X435500Y936400D01*
X451500Y936400D02*
X454500Y936400D01*
X478500Y936400D02*
X480500Y936400D01*
X494500Y936400D02*
X496500Y936400D01*
X504500Y936400D02*
X506500Y936400D01*
X522500Y936400D02*
X525500Y936400D01*
X532500Y936400D02*
X535500Y936400D01*
X551500Y936400D02*
X554500Y936400D01*
X581500Y936400D02*
X584500Y936400D01*
X599500Y936400D02*
X601500Y936400D01*
X607500Y936400D02*
X610500Y936400D01*
X627500Y936400D02*
X630500Y936400D01*
X636500Y936400D02*
X638500Y936400D01*
X645500Y936400D02*
X649500Y936400D01*
X679500Y936400D02*
X682500Y936400D01*
X696500Y936400D02*
X698500Y936400D01*
X705500Y936400D02*
X707500Y936400D01*
X723500Y936400D02*
X726500Y936400D01*
X738500Y936400D02*
X740500Y936400D01*
X744500Y936400D02*
X747500Y936400D01*
X373500Y935400D02*
X376500Y935400D01*
X395500Y935400D02*
X397500Y935400D01*
X403500Y935400D02*
X406500Y935400D01*
X409500Y935400D02*
X412500Y935400D01*
X423500Y935400D02*
X426500Y935400D01*
X433500Y935400D02*
X435500Y935400D01*
X452500Y935400D02*
X455500Y935400D01*
X478500Y935400D02*
X481500Y935400D01*
X493500Y935400D02*
X496500Y935400D01*
X504500Y935400D02*
X506500Y935400D01*
X523500Y935400D02*
X526500Y935400D01*
X532500Y935400D02*
X535500Y935400D01*
X551500Y935400D02*
X554500Y935400D01*
X581500Y935400D02*
X584500Y935400D01*
X607500Y935400D02*
X610500Y935400D01*
X628500Y935400D02*
X630500Y935400D01*
X636500Y935400D02*
X638500Y935400D01*
X644500Y935400D02*
X648500Y935400D01*
X679500Y935400D02*
X682500Y935400D01*
X705500Y935400D02*
X707500Y935400D01*
X724500Y935400D02*
X727500Y935400D01*
X738500Y935400D02*
X740500Y935400D01*
X744500Y935400D02*
X747500Y935400D01*
X373500Y934400D02*
X376500Y934400D01*
X403500Y934400D02*
X406500Y934400D01*
X410500Y934400D02*
X413500Y934400D01*
X423500Y934400D02*
X426500Y934400D01*
X433500Y934400D02*
X435500Y934400D01*
X452500Y934400D02*
X455500Y934400D01*
X478500Y934400D02*
X481500Y934400D01*
X493500Y934400D02*
X496500Y934400D01*
X504500Y934400D02*
X506500Y934400D01*
X523500Y934400D02*
X526500Y934400D01*
X532500Y934400D02*
X535500Y934400D01*
X551500Y934400D02*
X554500Y934400D01*
X582500Y934400D02*
X585500Y934400D01*
X606500Y934400D02*
X609500Y934400D01*
X636500Y934400D02*
X638500Y934400D01*
X643500Y934400D02*
X647500Y934400D01*
X679500Y934400D02*
X683500Y934400D01*
X705500Y934400D02*
X707500Y934400D01*
X724500Y934400D02*
X727500Y934400D01*
X737500Y934400D02*
X740500Y934400D01*
X745500Y934400D02*
X747500Y934400D01*
X373500Y933400D02*
X376500Y933400D01*
X403500Y933400D02*
X406500Y933400D01*
X410500Y933400D02*
X414500Y933400D01*
X423500Y933400D02*
X426500Y933400D01*
X433500Y933400D02*
X435500Y933400D01*
X452500Y933400D02*
X455500Y933400D01*
X479500Y933400D02*
X482500Y933400D01*
X493500Y933400D02*
X495500Y933400D01*
X504500Y933400D02*
X506500Y933400D01*
X523500Y933400D02*
X526500Y933400D01*
X532500Y933400D02*
X535500Y933400D01*
X552500Y933400D02*
X555500Y933400D01*
X582500Y933400D02*
X586500Y933400D01*
X606500Y933400D02*
X609500Y933400D01*
X636500Y933400D02*
X638500Y933400D01*
X643500Y933400D02*
X646500Y933400D01*
X680500Y933400D02*
X684500Y933400D01*
X705500Y933400D02*
X707500Y933400D01*
X724500Y933400D02*
X727500Y933400D01*
X737500Y933400D02*
X739500Y933400D01*
X745500Y933400D02*
X748500Y933400D01*
X373500Y932400D02*
X376500Y932400D01*
X403500Y932400D02*
X406500Y932400D01*
X411500Y932400D02*
X414500Y932400D01*
X423500Y932400D02*
X426500Y932400D01*
X433500Y932400D02*
X435500Y932400D01*
X453500Y932400D02*
X455500Y932400D01*
X479500Y932400D02*
X482500Y932400D01*
X492500Y932400D02*
X495500Y932400D01*
X504500Y932400D02*
X506500Y932400D01*
X524500Y932400D02*
X526500Y932400D01*
X532500Y932400D02*
X535500Y932400D01*
X552500Y932400D02*
X555500Y932400D01*
X583500Y932400D02*
X588500Y932400D01*
X606500Y932400D02*
X609500Y932400D01*
X636500Y932400D02*
X638500Y932400D01*
X642500Y932400D02*
X645500Y932400D01*
X680500Y932400D02*
X686500Y932400D01*
X705500Y932400D02*
X707500Y932400D01*
X724500Y932400D02*
X727500Y932400D01*
X736500Y932400D02*
X739500Y932400D01*
X745500Y932400D02*
X748500Y932400D01*
X373500Y931400D02*
X375500Y931400D01*
X403500Y931400D02*
X406500Y931400D01*
X412500Y931400D02*
X415500Y931400D01*
X423500Y931400D02*
X426500Y931400D01*
X433500Y931400D02*
X435500Y931400D01*
X453500Y931400D02*
X456500Y931400D01*
X480500Y931400D02*
X482500Y931400D01*
X492500Y931400D02*
X494500Y931400D01*
X504500Y931400D02*
X506500Y931400D01*
X524500Y931400D02*
X526500Y931400D01*
X532500Y931400D02*
X535500Y931400D01*
X552500Y931400D02*
X555500Y931400D01*
X583500Y931400D02*
X592500Y931400D01*
X606500Y931400D02*
X609500Y931400D01*
X636500Y931400D02*
X638500Y931400D01*
X641500Y931400D02*
X644500Y931400D01*
X681500Y931400D02*
X690500Y931400D01*
X705500Y931400D02*
X707500Y931400D01*
X725500Y931400D02*
X727500Y931400D01*
X736500Y931400D02*
X739500Y931400D01*
X746500Y931400D02*
X748500Y931400D01*
X373500Y930400D02*
X375500Y930400D01*
X403500Y930400D02*
X406500Y930400D01*
X412500Y930400D02*
X416500Y930400D01*
X423500Y930400D02*
X426500Y930400D01*
X433500Y930400D02*
X435500Y930400D01*
X453500Y930400D02*
X456500Y930400D01*
X480500Y930400D02*
X483500Y930400D01*
X491500Y930400D02*
X494500Y930400D01*
X504500Y930400D02*
X506500Y930400D01*
X524500Y930400D02*
X526500Y930400D01*
X532500Y930400D02*
X535500Y930400D01*
X552500Y930400D02*
X555500Y930400D01*
X585500Y930400D02*
X596500Y930400D01*
X606500Y930400D02*
X609500Y930400D01*
X636500Y930400D02*
X645500Y930400D01*
X682500Y930400D02*
X693500Y930400D01*
X705500Y930400D02*
X707500Y930400D01*
X725500Y930400D02*
X727500Y930400D01*
X736500Y930400D02*
X738500Y930400D01*
X746500Y930400D02*
X749500Y930400D01*
X373500Y929400D02*
X375500Y929400D01*
X387500Y929400D02*
X398500Y929400D01*
X403500Y929400D02*
X406500Y929400D01*
X413500Y929400D02*
X416500Y929400D01*
X423500Y929400D02*
X426500Y929400D01*
X433500Y929400D02*
X435500Y929400D01*
X453500Y929400D02*
X456500Y929400D01*
X480500Y929400D02*
X483500Y929400D01*
X491500Y929400D02*
X494500Y929400D01*
X504500Y929400D02*
X506500Y929400D01*
X524500Y929400D02*
X527500Y929400D01*
X532500Y929400D02*
X535500Y929400D01*
X552500Y929400D02*
X555500Y929400D01*
X587500Y929400D02*
X598500Y929400D01*
X606500Y929400D02*
X609500Y929400D01*
X636500Y929400D02*
X646500Y929400D01*
X684500Y929400D02*
X696500Y929400D01*
X705500Y929400D02*
X707500Y929400D01*
X725500Y929400D02*
X727500Y929400D01*
X735500Y929400D02*
X738500Y929400D01*
X746500Y929400D02*
X749500Y929400D01*
X373500Y928400D02*
X375500Y928400D01*
X387500Y928400D02*
X398500Y928400D01*
X403500Y928400D02*
X406500Y928400D01*
X414500Y928400D02*
X417500Y928400D01*
X423500Y928400D02*
X426500Y928400D01*
X433500Y928400D02*
X435500Y928400D01*
X453500Y928400D02*
X456500Y928400D01*
X481500Y928400D02*
X483500Y928400D01*
X491500Y928400D02*
X493500Y928400D01*
X504500Y928400D02*
X506500Y928400D01*
X524500Y928400D02*
X526500Y928400D01*
X532500Y928400D02*
X535500Y928400D01*
X552500Y928400D02*
X555500Y928400D01*
X590500Y928400D02*
X599500Y928400D01*
X606500Y928400D02*
X609500Y928400D01*
X636500Y928400D02*
X646500Y928400D01*
X687500Y928400D02*
X697500Y928400D01*
X705500Y928400D02*
X707500Y928400D01*
X725500Y928400D02*
X727500Y928400D01*
X735500Y928400D02*
X738500Y928400D01*
X747500Y928400D02*
X749500Y928400D01*
X373500Y927400D02*
X375500Y927400D01*
X387500Y927400D02*
X398500Y927400D01*
X403500Y927400D02*
X406500Y927400D01*
X415500Y927400D02*
X418500Y927400D01*
X423500Y927400D02*
X426500Y927400D01*
X433500Y927400D02*
X435500Y927400D01*
X453500Y927400D02*
X455500Y927400D01*
X481500Y927400D02*
X484500Y927400D01*
X490500Y927400D02*
X493500Y927400D01*
X504500Y927400D02*
X506500Y927400D01*
X524500Y927400D02*
X526500Y927400D01*
X532500Y927400D02*
X535500Y927400D01*
X552500Y927400D02*
X555500Y927400D01*
X594500Y927400D02*
X600500Y927400D01*
X606500Y927400D02*
X609500Y927400D01*
X636500Y927400D02*
X640500Y927400D01*
X643500Y927400D02*
X647500Y927400D01*
X692500Y927400D02*
X698500Y927400D01*
X705500Y927400D02*
X707500Y927400D01*
X725500Y927400D02*
X727500Y927400D01*
X735500Y927400D02*
X737500Y927400D01*
X747500Y927400D02*
X750500Y927400D01*
X373500Y926400D02*
X376500Y926400D01*
X395500Y926400D02*
X398500Y926400D01*
X403500Y926400D02*
X406500Y926400D01*
X415500Y926400D02*
X418500Y926400D01*
X423500Y926400D02*
X426500Y926400D01*
X433500Y926400D02*
X435500Y926400D01*
X453500Y926400D02*
X455500Y926400D01*
X481500Y926400D02*
X484500Y926400D01*
X490500Y926400D02*
X493500Y926400D01*
X504500Y926400D02*
X506500Y926400D01*
X523500Y926400D02*
X526500Y926400D01*
X532500Y926400D02*
X535500Y926400D01*
X552500Y926400D02*
X555500Y926400D01*
X596500Y926400D02*
X601500Y926400D01*
X606500Y926400D02*
X609500Y926400D01*
X636500Y926400D02*
X640500Y926400D01*
X644500Y926400D02*
X648500Y926400D01*
X694500Y926400D02*
X699500Y926400D01*
X705500Y926400D02*
X707500Y926400D01*
X724500Y926400D02*
X727500Y926400D01*
X734500Y926400D02*
X737500Y926400D01*
X747500Y926400D02*
X750500Y926400D01*
X373500Y925400D02*
X376500Y925400D01*
X395500Y925400D02*
X398500Y925400D01*
X403500Y925400D02*
X406500Y925400D01*
X416500Y925400D02*
X419500Y925400D01*
X423500Y925400D02*
X426500Y925400D01*
X433500Y925400D02*
X435500Y925400D01*
X452500Y925400D02*
X455500Y925400D01*
X482500Y925400D02*
X484500Y925400D01*
X490500Y925400D02*
X492500Y925400D01*
X504500Y925400D02*
X506500Y925400D01*
X523500Y925400D02*
X526500Y925400D01*
X532500Y925400D02*
X535500Y925400D01*
X552500Y925400D02*
X555500Y925400D01*
X598500Y925400D02*
X601500Y925400D01*
X606500Y925400D02*
X609500Y925400D01*
X636500Y925400D02*
X639500Y925400D01*
X645500Y925400D02*
X649500Y925400D01*
X695500Y925400D02*
X699500Y925400D01*
X705500Y925400D02*
X707500Y925400D01*
X724500Y925400D02*
X727500Y925400D01*
X734500Y925400D02*
X751500Y925400D01*
X373500Y924400D02*
X376500Y924400D01*
X395500Y924400D02*
X397500Y924400D01*
X403500Y924400D02*
X406500Y924400D01*
X417500Y924400D02*
X420500Y924400D01*
X423500Y924400D02*
X426500Y924400D01*
X433500Y924400D02*
X435500Y924400D01*
X452500Y924400D02*
X455500Y924400D01*
X482500Y924400D02*
X485500Y924400D01*
X489500Y924400D02*
X492500Y924400D01*
X504500Y924400D02*
X506500Y924400D01*
X523500Y924400D02*
X526500Y924400D01*
X532500Y924400D02*
X535500Y924400D01*
X551500Y924400D02*
X554500Y924400D01*
X598500Y924400D02*
X601500Y924400D01*
X606500Y924400D02*
X609500Y924400D01*
X636500Y924400D02*
X638500Y924400D01*
X646500Y924400D02*
X649500Y924400D01*
X696500Y924400D02*
X699500Y924400D01*
X705500Y924400D02*
X707500Y924400D01*
X724500Y924400D02*
X727500Y924400D01*
X733500Y924400D02*
X751500Y924400D01*
X373500Y923400D02*
X377500Y923400D01*
X395500Y923400D02*
X397500Y923400D01*
X403500Y923400D02*
X406500Y923400D01*
X417500Y923400D02*
X421500Y923400D01*
X423500Y923400D02*
X426500Y923400D01*
X433500Y923400D02*
X435500Y923400D01*
X452500Y923400D02*
X455500Y923400D01*
X483500Y923400D02*
X485500Y923400D01*
X489500Y923400D02*
X492500Y923400D01*
X504500Y923400D02*
X506500Y923400D01*
X523500Y923400D02*
X526500Y923400D01*
X532500Y923400D02*
X535500Y923400D01*
X551500Y923400D02*
X554500Y923400D01*
X599500Y923400D02*
X602500Y923400D01*
X607500Y923400D02*
X610500Y923400D01*
X627500Y923400D02*
X630500Y923400D01*
X636500Y923400D02*
X638500Y923400D01*
X647500Y923400D02*
X650500Y923400D01*
X696500Y923400D02*
X699500Y923400D01*
X705500Y923400D02*
X707500Y923400D01*
X723500Y923400D02*
X727500Y923400D01*
X733500Y923400D02*
X751500Y923400D01*
X374500Y922400D02*
X377500Y922400D01*
X394500Y922400D02*
X397500Y922400D01*
X403500Y922400D02*
X406500Y922400D01*
X418500Y922400D02*
X421500Y922400D01*
X423500Y922400D02*
X426500Y922400D01*
X433500Y922400D02*
X435500Y922400D01*
X451500Y922400D02*
X454500Y922400D01*
X483500Y922400D02*
X485500Y922400D01*
X489500Y922400D02*
X491500Y922400D01*
X504500Y922400D02*
X506500Y922400D01*
X522500Y922400D02*
X525500Y922400D01*
X532500Y922400D02*
X535500Y922400D01*
X550500Y922400D02*
X554500Y922400D01*
X581500Y922400D02*
X583500Y922400D01*
X599500Y922400D02*
X602500Y922400D01*
X607500Y922400D02*
X610500Y922400D01*
X627500Y922400D02*
X630500Y922400D01*
X636500Y922400D02*
X638500Y922400D01*
X647500Y922400D02*
X651500Y922400D01*
X678500Y922400D02*
X681500Y922400D01*
X696500Y922400D02*
X699500Y922400D01*
X705500Y922400D02*
X707500Y922400D01*
X723500Y922400D02*
X726500Y922400D01*
X733500Y922400D02*
X735500Y922400D01*
X749500Y922400D02*
X752500Y922400D01*
X374500Y921400D02*
X378500Y921400D01*
X394500Y921400D02*
X397500Y921400D01*
X403500Y921400D02*
X406500Y921400D01*
X419500Y921400D02*
X426500Y921400D01*
X433500Y921400D02*
X435500Y921400D01*
X450500Y921400D02*
X454500Y921400D01*
X483500Y921400D02*
X486500Y921400D01*
X488500Y921400D02*
X491500Y921400D01*
X504500Y921400D02*
X506500Y921400D01*
X521500Y921400D02*
X525500Y921400D01*
X532500Y921400D02*
X535500Y921400D01*
X550500Y921400D02*
X553500Y921400D01*
X581500Y921400D02*
X584500Y921400D01*
X599500Y921400D02*
X601500Y921400D01*
X608500Y921400D02*
X611500Y921400D01*
X626500Y921400D02*
X630500Y921400D01*
X636500Y921400D02*
X638500Y921400D01*
X648500Y921400D02*
X652500Y921400D01*
X678500Y921400D02*
X681500Y921400D01*
X696500Y921400D02*
X699500Y921400D01*
X705500Y921400D02*
X707500Y921400D01*
X722500Y921400D02*
X726500Y921400D01*
X732500Y921400D02*
X735500Y921400D01*
X749500Y921400D02*
X752500Y921400D01*
X375500Y920400D02*
X378500Y920400D01*
X393500Y920400D02*
X396500Y920400D01*
X403500Y920400D02*
X406500Y920400D01*
X419500Y920400D02*
X426500Y920400D01*
X433500Y920400D02*
X435500Y920400D01*
X449500Y920400D02*
X453500Y920400D01*
X484500Y920400D02*
X486500Y920400D01*
X488500Y920400D02*
X490500Y920400D01*
X504500Y920400D02*
X506500Y920400D01*
X520500Y920400D02*
X524500Y920400D01*
X532500Y920400D02*
X535500Y920400D01*
X549500Y920400D02*
X553500Y920400D01*
X581500Y920400D02*
X584500Y920400D01*
X598500Y920400D02*
X601500Y920400D01*
X608500Y920400D02*
X612500Y920400D01*
X626500Y920400D02*
X629500Y920400D01*
X636500Y920400D02*
X638500Y920400D01*
X649500Y920400D02*
X652500Y920400D01*
X679500Y920400D02*
X682500Y920400D01*
X696500Y920400D02*
X699500Y920400D01*
X705500Y920400D02*
X707500Y920400D01*
X721500Y920400D02*
X725500Y920400D01*
X732500Y920400D02*
X735500Y920400D01*
X750500Y920400D02*
X752500Y920400D01*
X376500Y919400D02*
X380500Y919400D01*
X392500Y919400D02*
X396500Y919400D01*
X403500Y919400D02*
X406500Y919400D01*
X420500Y919400D02*
X426500Y919400D01*
X433500Y919400D02*
X435500Y919400D01*
X448500Y919400D02*
X452500Y919400D01*
X484500Y919400D02*
X490500Y919400D01*
X504500Y919400D02*
X506500Y919400D01*
X519500Y919400D02*
X523500Y919400D01*
X532500Y919400D02*
X535500Y919400D01*
X547500Y919400D02*
X552500Y919400D01*
X581500Y919400D02*
X585500Y919400D01*
X597500Y919400D02*
X601500Y919400D01*
X609500Y919400D02*
X613500Y919400D01*
X625500Y919400D02*
X629500Y919400D01*
X636500Y919400D02*
X638500Y919400D01*
X650500Y919400D02*
X653500Y919400D01*
X679500Y919400D02*
X683500Y919400D01*
X695500Y919400D02*
X698500Y919400D01*
X705500Y919400D02*
X707500Y919400D01*
X720500Y919400D02*
X724500Y919400D01*
X732500Y919400D02*
X734500Y919400D01*
X750500Y919400D02*
X753500Y919400D01*
X376500Y918400D02*
X381500Y918400D01*
X390500Y918400D02*
X395500Y918400D01*
X403500Y918400D02*
X406500Y918400D01*
X421500Y918400D02*
X426500Y918400D01*
X433500Y918400D02*
X436500Y918400D01*
X445500Y918400D02*
X452500Y918400D01*
X484500Y918400D02*
X490500Y918400D01*
X504500Y918400D02*
X506500Y918400D01*
X516500Y918400D02*
X523500Y918400D01*
X532500Y918400D02*
X535500Y918400D01*
X545500Y918400D02*
X551500Y918400D01*
X582500Y918400D02*
X587500Y918400D01*
X596500Y918400D02*
X600500Y918400D01*
X610500Y918400D02*
X615500Y918400D01*
X623500Y918400D02*
X628500Y918400D01*
X636500Y918400D02*
X638500Y918400D01*
X650500Y918400D02*
X654500Y918400D01*
X680500Y918400D02*
X685500Y918400D01*
X693500Y918400D02*
X698500Y918400D01*
X705500Y918400D02*
X707500Y918400D01*
X717500Y918400D02*
X723500Y918400D01*
X731500Y918400D02*
X734500Y918400D01*
X750500Y918400D02*
X753500Y918400D01*
X377500Y917400D02*
X394500Y917400D01*
X403500Y917400D02*
X406500Y917400D01*
X422500Y917400D02*
X426500Y917400D01*
X433500Y917400D02*
X450500Y917400D01*
X485500Y917400D02*
X489500Y917400D01*
X504500Y917400D02*
X521500Y917400D01*
X532500Y917400D02*
X550500Y917400D01*
X583500Y917400D02*
X599500Y917400D01*
X611500Y917400D02*
X627500Y917400D01*
X636500Y917400D02*
X638500Y917400D01*
X651500Y917400D02*
X655500Y917400D01*
X681500Y917400D02*
X697500Y917400D01*
X705500Y917400D02*
X722500Y917400D01*
X731500Y917400D02*
X734500Y917400D01*
X751500Y917400D02*
X754500Y917400D01*
X379500Y916400D02*
X393500Y916400D01*
X403500Y916400D02*
X406500Y916400D01*
X422500Y916400D02*
X426500Y916400D01*
X433500Y916400D02*
X449500Y916400D01*
X485500Y916400D02*
X489500Y916400D01*
X504500Y916400D02*
X520500Y916400D01*
X532500Y916400D02*
X548500Y916400D01*
X584500Y916400D02*
X598500Y916400D01*
X612500Y916400D02*
X626500Y916400D01*
X636500Y916400D02*
X638500Y916400D01*
X652500Y916400D02*
X656500Y916400D01*
X682500Y916400D02*
X696500Y916400D01*
X705500Y916400D02*
X721500Y916400D01*
X730500Y916400D02*
X733500Y916400D01*
X751500Y916400D02*
X754500Y916400D01*
X380500Y915400D02*
X391500Y915400D01*
X403500Y915400D02*
X406500Y915400D01*
X423500Y915400D02*
X426500Y915400D01*
X433500Y915400D02*
X446500Y915400D01*
X485500Y915400D02*
X489500Y915400D01*
X504500Y915400D02*
X517500Y915400D01*
X532500Y915400D02*
X546500Y915400D01*
X586500Y915400D02*
X597500Y915400D01*
X614500Y915400D02*
X624500Y915400D01*
X636500Y915400D02*
X638500Y915400D01*
X653500Y915400D02*
X656500Y915400D01*
X684500Y915400D02*
X694500Y915400D01*
X705500Y915400D02*
X718500Y915400D01*
X730500Y915400D02*
X733500Y915400D01*
X751500Y915400D02*
X754500Y915400D01*
X385500Y914400D02*
X387500Y914400D01*
X590500Y914400D02*
X592500Y914400D01*
X617500Y914400D02*
X620500Y914400D01*
X688500Y914400D02*
X690500Y914400D01*
X465500Y589400D02*
X471500Y589400D01*
X503500Y589400D02*
X506500Y589400D01*
X553500Y589400D02*
X583500Y589400D01*
X602500Y589400D02*
X622500Y589400D01*
X654500Y589400D02*
X672500Y589400D01*
X463500Y588400D02*
X473500Y588400D01*
X502500Y588400D02*
X507500Y588400D01*
X553500Y588400D02*
X584500Y588400D01*
X602500Y588400D02*
X624500Y588400D01*
X653500Y588400D02*
X672500Y588400D01*
X462500Y587400D02*
X474500Y587400D01*
X502500Y587400D02*
X508500Y587400D01*
X553500Y587400D02*
X584500Y587400D01*
X601500Y587400D02*
X625500Y587400D01*
X652500Y587400D02*
X672500Y587400D01*
X461500Y586400D02*
X475500Y586400D01*
X502500Y586400D02*
X508500Y586400D01*
X553500Y586400D02*
X584500Y586400D01*
X601500Y586400D02*
X626500Y586400D01*
X652500Y586400D02*
X672500Y586400D01*
X461500Y585400D02*
X476500Y585400D01*
X502500Y585400D02*
X508500Y585400D01*
X553500Y585400D02*
X584500Y585400D01*
X601500Y585400D02*
X627500Y585400D01*
X652500Y585400D02*
X672500Y585400D01*
X460500Y584400D02*
X476500Y584400D01*
X502500Y584400D02*
X508500Y584400D01*
X553500Y584400D02*
X584500Y584400D01*
X602500Y584400D02*
X628500Y584400D01*
X653500Y584400D02*
X672500Y584400D01*
X460500Y583400D02*
X477500Y583400D01*
X502500Y583400D02*
X508500Y583400D01*
X553500Y583400D02*
X582500Y583400D01*
X603500Y583400D02*
X628500Y583400D01*
X654500Y583400D02*
X672500Y583400D01*
X459500Y582400D02*
X466500Y582400D01*
X470500Y582400D02*
X477500Y582400D01*
X502500Y582400D02*
X508500Y582400D01*
X553500Y582400D02*
X559500Y582400D01*
X608500Y582400D02*
X614500Y582400D01*
X621500Y582400D02*
X629500Y582400D01*
X666500Y582400D02*
X672500Y582400D01*
X459500Y581400D02*
X466500Y581400D01*
X471500Y581400D02*
X478500Y581400D01*
X502500Y581400D02*
X508500Y581400D01*
X553500Y581400D02*
X559500Y581400D01*
X608500Y581400D02*
X614500Y581400D01*
X622500Y581400D02*
X629500Y581400D01*
X666500Y581400D02*
X672500Y581400D01*
X458500Y580400D02*
X465500Y580400D01*
X471500Y580400D02*
X478500Y580400D01*
X502500Y580400D02*
X508500Y580400D01*
X553500Y580400D02*
X559500Y580400D01*
X608500Y580400D02*
X614500Y580400D01*
X623500Y580400D02*
X630500Y580400D01*
X666500Y580400D02*
X672500Y580400D01*
X458500Y579400D02*
X465500Y579400D01*
X472500Y579400D02*
X479500Y579400D01*
X502500Y579400D02*
X508500Y579400D01*
X553500Y579400D02*
X559500Y579400D01*
X608500Y579400D02*
X614500Y579400D01*
X623500Y579400D02*
X630500Y579400D01*
X666500Y579400D02*
X672500Y579400D01*
X457500Y578400D02*
X464500Y578400D01*
X472500Y578400D02*
X479500Y578400D01*
X502500Y578400D02*
X508500Y578400D01*
X553500Y578400D02*
X559500Y578400D01*
X608500Y578400D02*
X614500Y578400D01*
X624500Y578400D02*
X631500Y578400D01*
X666500Y578400D02*
X672500Y578400D01*
X457500Y577400D02*
X464500Y577400D01*
X473500Y577400D02*
X480500Y577400D01*
X502500Y577400D02*
X508500Y577400D01*
X553500Y577400D02*
X559500Y577400D01*
X608500Y577400D02*
X614500Y577400D01*
X624500Y577400D02*
X631500Y577400D01*
X666500Y577400D02*
X672500Y577400D01*
X456500Y576400D02*
X463500Y576400D01*
X473500Y576400D02*
X480500Y576400D01*
X502500Y576400D02*
X508500Y576400D01*
X553500Y576400D02*
X559500Y576400D01*
X608500Y576400D02*
X614500Y576400D01*
X625500Y576400D02*
X632500Y576400D01*
X666500Y576400D02*
X672500Y576400D01*
X456500Y575400D02*
X463500Y575400D01*
X474500Y575400D02*
X481500Y575400D01*
X502500Y575400D02*
X508500Y575400D01*
X553500Y575400D02*
X559500Y575400D01*
X608500Y575400D02*
X614500Y575400D01*
X625500Y575400D02*
X632500Y575400D01*
X666500Y575400D02*
X672500Y575400D01*
X455500Y574400D02*
X462500Y574400D01*
X474500Y574400D02*
X481500Y574400D01*
X502500Y574400D02*
X508500Y574400D01*
X553500Y574400D02*
X559500Y574400D01*
X608500Y574400D02*
X614500Y574400D01*
X626500Y574400D02*
X633500Y574400D01*
X666500Y574400D02*
X672500Y574400D01*
X455500Y573400D02*
X462500Y573400D01*
X475500Y573400D02*
X482500Y573400D01*
X502500Y573400D02*
X508500Y573400D01*
X553500Y573400D02*
X559500Y573400D01*
X608500Y573400D02*
X614500Y573400D01*
X626500Y573400D02*
X633500Y573400D01*
X666500Y573400D02*
X672500Y573400D01*
X454500Y572400D02*
X461500Y572400D01*
X475500Y572400D02*
X482500Y572400D01*
X502500Y572400D02*
X508500Y572400D01*
X553500Y572400D02*
X559500Y572400D01*
X608500Y572400D02*
X614500Y572400D01*
X627500Y572400D02*
X634500Y572400D01*
X666500Y572400D02*
X672500Y572400D01*
X454500Y571400D02*
X461500Y571400D01*
X476500Y571400D02*
X483500Y571400D01*
X502500Y571400D02*
X508500Y571400D01*
X553500Y571400D02*
X559500Y571400D01*
X608500Y571400D02*
X614500Y571400D01*
X627500Y571400D02*
X634500Y571400D01*
X666500Y571400D02*
X672500Y571400D01*
X453500Y570400D02*
X460500Y570400D01*
X476500Y570400D02*
X483500Y570400D01*
X502500Y570400D02*
X508500Y570400D01*
X553500Y570400D02*
X559500Y570400D01*
X608500Y570400D02*
X614500Y570400D01*
X628500Y570400D02*
X635500Y570400D01*
X666500Y570400D02*
X672500Y570400D01*
X453500Y569400D02*
X460500Y569400D01*
X477500Y569400D02*
X484500Y569400D01*
X502500Y569400D02*
X508500Y569400D01*
X553500Y569400D02*
X559500Y569400D01*
X608500Y569400D02*
X614500Y569400D01*
X628500Y569400D02*
X635500Y569400D01*
X666500Y569400D02*
X672500Y569400D01*
X452500Y568400D02*
X459500Y568400D01*
X477500Y568400D02*
X484500Y568400D01*
X502500Y568400D02*
X508500Y568400D01*
X553500Y568400D02*
X559500Y568400D01*
X608500Y568400D02*
X614500Y568400D01*
X629500Y568400D02*
X636500Y568400D01*
X666500Y568400D02*
X672500Y568400D01*
X452500Y567400D02*
X459500Y567400D01*
X478500Y567400D02*
X484500Y567400D01*
X502500Y567400D02*
X508500Y567400D01*
X553500Y567400D02*
X559500Y567400D01*
X608500Y567400D02*
X614500Y567400D01*
X629500Y567400D02*
X636500Y567400D01*
X666500Y567400D02*
X672500Y567400D01*
X452500Y566400D02*
X458500Y566400D01*
X478500Y566400D02*
X485500Y566400D01*
X502500Y566400D02*
X508500Y566400D01*
X553500Y566400D02*
X571500Y566400D01*
X608500Y566400D02*
X614500Y566400D01*
X630500Y566400D02*
X636500Y566400D01*
X666500Y566400D02*
X672500Y566400D01*
X452500Y565400D02*
X458500Y565400D01*
X479500Y565400D02*
X485500Y565400D01*
X502500Y565400D02*
X508500Y565400D01*
X553500Y565400D02*
X572500Y565400D01*
X608500Y565400D02*
X614500Y565400D01*
X630500Y565400D02*
X636500Y565400D01*
X666500Y565400D02*
X672500Y565400D01*
X451500Y564400D02*
X458500Y564400D01*
X479500Y564400D02*
X485500Y564400D01*
X502500Y564400D02*
X508500Y564400D01*
X553500Y564400D02*
X573500Y564400D01*
X608500Y564400D02*
X614500Y564400D01*
X630500Y564400D02*
X637500Y564400D01*
X666500Y564400D02*
X672500Y564400D01*
X451500Y563400D02*
X457500Y563400D01*
X479500Y563400D02*
X485500Y563400D01*
X502500Y563400D02*
X508500Y563400D01*
X553500Y563400D02*
X573500Y563400D01*
X608500Y563400D02*
X614500Y563400D01*
X631500Y563400D02*
X637500Y563400D01*
X666500Y563400D02*
X672500Y563400D01*
X451500Y562400D02*
X457500Y562400D01*
X479500Y562400D02*
X485500Y562400D01*
X502500Y562400D02*
X508500Y562400D01*
X553500Y562400D02*
X573500Y562400D01*
X608500Y562400D02*
X614500Y562400D01*
X630500Y562400D02*
X637500Y562400D01*
X666500Y562400D02*
X672500Y562400D01*
X452500Y561400D02*
X458500Y561400D01*
X479500Y561400D02*
X485500Y561400D01*
X502500Y561400D02*
X508500Y561400D01*
X553500Y561400D02*
X573500Y561400D01*
X608500Y561400D02*
X614500Y561400D01*
X630500Y561400D02*
X636500Y561400D01*
X666500Y561400D02*
X672500Y561400D01*
X452500Y560400D02*
X458500Y560400D01*
X478500Y560400D02*
X485500Y560400D01*
X502500Y560400D02*
X508500Y560400D01*
X553500Y560400D02*
X572500Y560400D01*
X608500Y560400D02*
X614500Y560400D01*
X630500Y560400D02*
X636500Y560400D01*
X666500Y560400D02*
X672500Y560400D01*
X452500Y559400D02*
X458500Y559400D01*
X478500Y559400D02*
X485500Y559400D01*
X502500Y559400D02*
X508500Y559400D01*
X553500Y559400D02*
X559500Y559400D01*
X608500Y559400D02*
X614500Y559400D01*
X630500Y559400D02*
X636500Y559400D01*
X666500Y559400D02*
X672500Y559400D01*
X452500Y558400D02*
X459500Y558400D01*
X478500Y558400D02*
X484500Y558400D01*
X502500Y558400D02*
X508500Y558400D01*
X553500Y558400D02*
X559500Y558400D01*
X608500Y558400D02*
X614500Y558400D01*
X629500Y558400D02*
X636500Y558400D01*
X666500Y558400D02*
X672500Y558400D01*
X453500Y557400D02*
X459500Y557400D01*
X477500Y557400D02*
X484500Y557400D01*
X502500Y557400D02*
X508500Y557400D01*
X553500Y557400D02*
X559500Y557400D01*
X608500Y557400D02*
X614500Y557400D01*
X629500Y557400D02*
X635500Y557400D01*
X666500Y557400D02*
X672500Y557400D01*
X453500Y556400D02*
X460500Y556400D01*
X477500Y556400D02*
X483500Y556400D01*
X502500Y556400D02*
X508500Y556400D01*
X553500Y556400D02*
X559500Y556400D01*
X608500Y556400D02*
X614500Y556400D01*
X628500Y556400D02*
X635500Y556400D01*
X666500Y556400D02*
X672500Y556400D01*
X681500Y556400D02*
X684500Y556400D01*
X453500Y555400D02*
X460500Y555400D01*
X476500Y555400D02*
X483500Y555400D01*
X502500Y555400D02*
X508500Y555400D01*
X553500Y555400D02*
X559500Y555400D01*
X608500Y555400D02*
X614500Y555400D01*
X628500Y555400D02*
X635500Y555400D01*
X666500Y555400D02*
X672500Y555400D01*
X680500Y555400D02*
X685500Y555400D01*
X454500Y554400D02*
X461500Y554400D01*
X476500Y554400D02*
X483500Y554400D01*
X502500Y554400D02*
X508500Y554400D01*
X553500Y554400D02*
X559500Y554400D01*
X608500Y554400D02*
X614500Y554400D01*
X627500Y554400D02*
X634500Y554400D01*
X666500Y554400D02*
X672500Y554400D01*
X680500Y554400D02*
X686500Y554400D01*
X454500Y553400D02*
X461500Y553400D01*
X475500Y553400D02*
X482500Y553400D01*
X502500Y553400D02*
X508500Y553400D01*
X553500Y553400D02*
X559500Y553400D01*
X608500Y553400D02*
X614500Y553400D01*
X627500Y553400D02*
X634500Y553400D01*
X666500Y553400D02*
X672500Y553400D01*
X680500Y553400D02*
X686500Y553400D01*
X455500Y552400D02*
X462500Y552400D01*
X475500Y552400D02*
X482500Y552400D01*
X502500Y552400D02*
X508500Y552400D01*
X553500Y552400D02*
X559500Y552400D01*
X608500Y552400D02*
X614500Y552400D01*
X626500Y552400D02*
X633500Y552400D01*
X666500Y552400D02*
X672500Y552400D01*
X680500Y552400D02*
X686500Y552400D01*
X455500Y551400D02*
X462500Y551400D01*
X474500Y551400D02*
X481500Y551400D01*
X502500Y551400D02*
X508500Y551400D01*
X553500Y551400D02*
X559500Y551400D01*
X608500Y551400D02*
X614500Y551400D01*
X626500Y551400D02*
X633500Y551400D01*
X666500Y551400D02*
X672500Y551400D01*
X680500Y551400D02*
X686500Y551400D01*
X456500Y550400D02*
X463500Y550400D01*
X474500Y550400D02*
X481500Y550400D01*
X502500Y550400D02*
X508500Y550400D01*
X553500Y550400D02*
X559500Y550400D01*
X608500Y550400D02*
X614500Y550400D01*
X625500Y550400D02*
X632500Y550400D01*
X666500Y550400D02*
X672500Y550400D01*
X680500Y550400D02*
X686500Y550400D01*
X456500Y549400D02*
X463500Y549400D01*
X473500Y549400D02*
X480500Y549400D01*
X502500Y549400D02*
X508500Y549400D01*
X553500Y549400D02*
X559500Y549400D01*
X608500Y549400D02*
X614500Y549400D01*
X625500Y549400D02*
X632500Y549400D01*
X666500Y549400D02*
X672500Y549400D01*
X680500Y549400D02*
X686500Y549400D01*
X457500Y548400D02*
X464500Y548400D01*
X473500Y548400D02*
X480500Y548400D01*
X502500Y548400D02*
X508500Y548400D01*
X553500Y548400D02*
X559500Y548400D01*
X608500Y548400D02*
X614500Y548400D01*
X624500Y548400D02*
X631500Y548400D01*
X666500Y548400D02*
X672500Y548400D01*
X680500Y548400D02*
X686500Y548400D01*
X457500Y547400D02*
X464500Y547400D01*
X472500Y547400D02*
X479500Y547400D01*
X502500Y547400D02*
X508500Y547400D01*
X553500Y547400D02*
X559500Y547400D01*
X608500Y547400D02*
X614500Y547400D01*
X624500Y547400D02*
X631500Y547400D01*
X666500Y547400D02*
X672500Y547400D01*
X680500Y547400D02*
X686500Y547400D01*
X458500Y546400D02*
X465500Y546400D01*
X472500Y546400D02*
X479500Y546400D01*
X502500Y546400D02*
X508500Y546400D01*
X553500Y546400D02*
X559500Y546400D01*
X608500Y546400D02*
X614500Y546400D01*
X623500Y546400D02*
X630500Y546400D01*
X666500Y546400D02*
X672500Y546400D01*
X680500Y546400D02*
X686500Y546400D01*
X458500Y545400D02*
X465500Y545400D01*
X471500Y545400D02*
X478500Y545400D01*
X502500Y545400D02*
X508500Y545400D01*
X553500Y545400D02*
X559500Y545400D01*
X608500Y545400D02*
X614500Y545400D01*
X623500Y545400D02*
X630500Y545400D01*
X666500Y545400D02*
X672500Y545400D01*
X680500Y545400D02*
X686500Y545400D01*
X459500Y544400D02*
X466500Y544400D01*
X471500Y544400D02*
X478500Y544400D01*
X502500Y544400D02*
X508500Y544400D01*
X553500Y544400D02*
X559500Y544400D01*
X608500Y544400D02*
X614500Y544400D01*
X622500Y544400D02*
X629500Y544400D01*
X666500Y544400D02*
X672500Y544400D01*
X680500Y544400D02*
X686500Y544400D01*
X459500Y543400D02*
X467500Y543400D01*
X470500Y543400D02*
X477500Y543400D01*
X502500Y543400D02*
X508500Y543400D01*
X553500Y543400D02*
X559500Y543400D01*
X608500Y543400D02*
X614500Y543400D01*
X621500Y543400D02*
X629500Y543400D01*
X666500Y543400D02*
X672500Y543400D01*
X680500Y543400D02*
X686500Y543400D01*
X460500Y542400D02*
X477500Y542400D01*
X502500Y542400D02*
X533500Y542400D01*
X553500Y542400D02*
X583500Y542400D01*
X603500Y542400D02*
X628500Y542400D01*
X654500Y542400D02*
X686500Y542400D01*
X460500Y541400D02*
X476500Y541400D01*
X502500Y541400D02*
X535500Y541400D01*
X553500Y541400D02*
X584500Y541400D01*
X601500Y541400D02*
X628500Y541400D01*
X653500Y541400D02*
X686500Y541400D01*
X461500Y540400D02*
X475500Y540400D01*
X502500Y540400D02*
X535500Y540400D01*
X553500Y540400D02*
X584500Y540400D01*
X601500Y540400D02*
X627500Y540400D01*
X652500Y540400D02*
X686500Y540400D01*
X462500Y539400D02*
X475500Y539400D01*
X502500Y539400D02*
X535500Y539400D01*
X553500Y539400D02*
X584500Y539400D01*
X601500Y539400D02*
X626500Y539400D01*
X652500Y539400D02*
X686500Y539400D01*
X463500Y538400D02*
X474500Y538400D01*
X502500Y538400D02*
X535500Y538400D01*
X553500Y538400D02*
X584500Y538400D01*
X601500Y538400D02*
X625500Y538400D01*
X652500Y538400D02*
X686500Y538400D01*
X464500Y537400D02*
X472500Y537400D01*
X502500Y537400D02*
X534500Y537400D01*
X553500Y537400D02*
X584500Y537400D01*
X602500Y537400D02*
X624500Y537400D01*
X653500Y537400D02*
X685500Y537400D01*
X466500Y536400D02*
X470500Y536400D01*
X502500Y536400D02*
X533500Y536400D01*
X553500Y536400D02*
X583500Y536400D01*
X603500Y536400D02*
X621500Y536400D01*
X654500Y536400D02*
X684500Y536400D01*
D02*
G04 End of Silk1*
M02*